<svg width="528" height="95" viewBox="0 0 528 95" fill="none" xmlns="http://www.w3.org/2000/svg">
<path d="M29.6875 92.5C29.4792 89.625 29.2708 86.7292 29.0625 83.8125C28.8958 80.8958 28.6875 77.9583 28.4375 75C26.6042 74.875 24.8333 74.75 23.125 74.625C21.4167 74.5 19.6875 74.4375 17.9375 74.4375H17.125C16.9167 77.4375 16.7292 80.3958 16.5625 83.3125C16.3958 86.2292 16.25 89.125 16.125 92L0.5 91.75C3.08333 76.875 5.41667 62.0417 7.5 47.25C9.58333 32.4583 11.3542 17.5417 12.8125 2.5L31.625 2.8125C33.2083 17.6875 35.1042 32.4792 37.3125 47.1875C39.5625 61.8542 42.1875 76.625 45.1875 91.5L29.6875 92.5ZM22.375 18.25C21.5417 25.9167 20.75 33.5625 20 41.1875C19.25 48.8125 18.5625 56.5 17.9375 64.25C18.8125 64.3333 19.7083 64.375 20.625 64.375C21.5417 64.375 22.4792 64.375 23.4375 64.375H27.5C26.7917 56.625 26 48.9375 25.125 41.3125C24.25 33.6875 23.3333 26 22.375 18.25ZM88.125 27C88.125 29.5833 87.8333 32.25 87.25 35C86.7083 37.75 85.8333 40.3958 84.625 42.9375C83.4583 45.4792 81.9583 47.8125 80.125 49.9375C78.2917 52.0625 76.1042 53.7917 73.5625 55.125C76.0208 56.2083 77.9583 57.5625 79.375 59.1875C80.8333 60.8125 81.9375 62.5 82.6875 64.25C83.4375 65.9583 83.9167 67.6042 84.125 69.1875C84.3333 70.7292 84.4375 71.9792 84.4375 72.9375C84.4375 76.1042 83.9583 78.8333 83 81.125C82.0833 83.375 80.8958 85.2917 79.4375 86.875C77.9792 88.4167 76.3333 89.6667 74.5 90.625C72.7083 91.5417 70.9167 92.25 69.125 92.75C67.375 93.25 65.7292 93.5625 64.1875 93.6875C62.6458 93.8542 61.4167 93.9375 60.5 93.9375C59.3333 93.8958 58.1458 93.7917 56.9375 93.625C55.8958 93.4583 54.7708 93.2083 53.5625 92.875C52.3958 92.5833 51.3333 92.125 50.375 91.5C50.625 83.5833 50.75 75.6875 50.75 67.8125C50.75 57.1042 50.5 46.5208 50 36.0625C49.5417 25.6042 48.8542 15.0625 47.9375 4.4375C49.8542 3.85417 51.75 3.39583 53.625 3.0625C55.5417 2.72917 57.2708 2.47917 58.8125 2.3125C60.6042 2.14583 62.3125 2.04167 63.9375 2C65.2292 2 66.7083 2.16667 68.375 2.5C70.0833 2.79167 71.8333 3.33333 73.625 4.125C75.4167 4.875 77.1667 5.875 78.875 7.125C80.625 8.33333 82.1875 9.875 83.5625 11.75C84.9375 13.5833 86.0417 15.7708 86.875 18.3125C87.7083 20.8125 88.125 23.7083 88.125 27ZM76 29.8125C76 29.8542 76 29.5 76 28.75C76 27.9583 75.8958 26.9792 75.6875 25.8125C75.5208 24.6042 75.2083 23.2917 74.75 21.875C74.3333 20.4583 73.6875 19.125 72.8125 17.875C71.9375 16.625 70.7917 15.5417 69.375 14.625C68 13.6667 66.2708 13.0833 64.1875 12.875C63.9375 19.75 63.6875 26.6042 63.4375 33.4375C63.2292 40.2708 63.0625 47.125 62.9375 54C64.4375 53.4583 65.7708 52.6875 66.9375 51.6875C68.1458 50.6875 69.1875 49.5833 70.0625 48.375C70.9792 47.125 71.75 45.8125 72.375 44.4375C73 43.0208 73.5417 41.625 74 40.25C75.0417 37.0417 75.7083 33.5625 76 29.8125ZM72.5 71.25C72.4167 69.2083 72 67.3542 71.25 65.6875C70.9167 64.9792 70.5208 64.2708 70.0625 63.5625C69.6042 62.8125 69.0208 62.1458 68.3125 61.5625C67.6458 60.9375 66.8542 60.4167 65.9375 60C65.0208 59.5417 63.9792 59.2083 62.8125 59C62.6875 63.375 62.5833 67.7292 62.5 72.0625C62.4167 76.3542 62.375 80.6875 62.375 85.0625C63.625 84.6042 64.7292 84.0625 65.6875 83.4375C66.6458 82.7708 67.4792 82.0833 68.1875 81.375C68.8958 80.625 69.4792 79.8542 69.9375 79.0625C70.4375 78.2708 70.8542 77.5 71.1875 76.75C71.9375 75 72.375 73.1667 72.5 71.25ZM136.188 48.25C136.188 56.625 135.604 63.7292 134.438 69.5625C133.312 75.3958 131.771 80.1458 129.812 83.8125C127.854 87.4375 125.542 90.0833 122.875 91.75C120.208 93.375 117.354 94.1875 114.312 94.1875C111.271 94.1875 108.417 93.4167 105.75 91.875C103.083 90.2917 100.75 87.7083 98.75 84.125C96.75 80.5417 95.1667 75.8125 94 69.9375C92.875 64.0625 92.3125 56.8333 92.3125 48.25C92.3125 39.625 92.875 32.3125 94 26.3125C95.1667 20.2708 96.75 15.375 98.75 11.625C100.75 7.83333 103.083 5.10417 105.75 3.4375C108.417 1.72917 111.271 0.875 114.312 0.875C117.354 0.875 120.208 1.70833 122.875 3.375C125.542 5 127.854 7.6875 129.812 11.4375C131.771 15.1875 133.312 20.0833 134.438 26.125C135.604 32.125 136.188 39.5 136.188 48.25ZM122.25 48.25C122.25 41.7083 122.042 36.1875 121.625 31.6875C121.208 27.1875 120.625 23.5417 119.875 20.75C119.167 17.9167 118.333 15.875 117.375 14.625C116.417 13.375 115.396 12.75 114.312 12.75C113.188 12.75 112.125 13.3958 111.125 14.6875C110.167 15.9375 109.312 17.9792 108.562 20.8125C107.854 23.6042 107.292 27.2708 106.875 31.8125C106.458 36.3125 106.25 41.7917 106.25 48.25C106.25 54.6667 106.458 60.0625 106.875 64.4375C107.292 68.7708 107.854 72.2708 108.562 74.9375C109.312 77.5625 110.167 79.4375 111.125 80.5625C112.125 81.6875 113.188 82.25 114.312 82.25C115.396 82.25 116.417 81.6667 117.375 80.5C118.333 79.2917 119.167 77.3542 119.875 74.6875C120.625 71.9792 121.208 68.4583 121.625 64.125C122.042 59.7917 122.25 54.5 122.25 48.25ZM178.562 1.5C179.521 10 180.188 18.6042 180.562 27.3125C180.938 35.9792 181.125 45.0417 181.125 54.5C181.125 57.7083 180.979 60.8958 180.688 64.0625C180.438 67.1875 179.979 70.1875 179.312 73.0625C178.688 75.8958 177.833 78.5417 176.75 81C175.708 83.4167 174.396 85.5208 172.812 87.3125C171.229 89.0625 169.354 90.4583 167.188 91.5C165.021 92.5 162.542 93 159.75 93C157.25 93 155.062 92.5417 153.188 91.625C151.312 90.6667 149.708 89.375 148.375 87.75C147.042 86.0833 145.917 84.1458 145 81.9375C144.125 79.6875 143.438 77.2708 142.938 74.6875C142.438 72.0625 142.083 69.3333 141.875 66.5C141.667 63.6667 141.562 60.8125 141.562 57.9375C141.562 49.2708 141.917 40.5 142.625 31.625C143.333 22.7083 144.167 13.4792 145.125 3.9375L158.188 4.1875C157.438 13.1458 156.729 22.1875 156.062 31.3125C155.438 40.4375 155.125 49.8333 155.125 59.5C155.125 62.2917 155.208 64.9375 155.375 67.4375C155.542 69.9375 155.833 72.1458 156.25 74.0625C156.667 75.9375 157.188 77.4375 157.812 78.5625C158.479 79.6875 159.292 80.25 160.25 80.25C161.375 80.25 162.396 79.375 163.312 77.625C164.271 75.8333 165.062 73.5 165.688 70.625C166.354 67.7083 166.875 64.3958 167.25 60.6875C167.625 56.9792 167.812 53.2083 167.812 49.375C167.812 45.7083 167.771 42.0208 167.688 38.3125C167.646 34.6042 167.562 30.8542 167.438 27.0625C167.312 23.2292 167.146 19.3333 166.938 15.375C166.729 11.375 166.458 7.22917 166.125 2.9375L178.562 1.5ZM220.438 15.3125C219.104 15.2292 217.562 15.1667 215.812 15.125C214.104 15.0833 212.271 15.0625 210.312 15.0625C210.021 18.9375 209.771 22.9583 209.562 27.125C209.396 31.25 209.25 35.4583 209.125 39.75C209 44 208.917 48.2917 208.875 52.625C208.833 56.9167 208.812 61.1667 208.812 65.375C208.812 70.1667 208.833 74.8125 208.875 79.3125C208.958 83.7708 209.104 88.0833 209.312 92.25H196C196.375 85.1667 196.667 77.625 196.875 69.625C197.083 61.625 197.188 53.5625 197.188 45.4375C197.188 40.1458 197.125 34.9792 197 29.9375C196.875 24.8958 196.75 19.9792 196.625 15.1875C194.625 15.1875 192.729 15.2083 190.938 15.25C189.146 15.2917 187.542 15.3542 186.125 15.4375L186.25 2.375C187.75 2.5 189.438 2.60417 191.312 2.6875C193.188 2.72917 195.146 2.77083 197.188 2.8125C199.271 2.85417 201.396 2.89583 203.562 2.9375C205.729 2.9375 207.854 2.9375 209.938 2.9375C212.021 2.9375 213.979 2.9375 215.812 2.9375C217.688 2.9375 219.354 2.89583 220.812 2.8125L220.438 15.3125ZM291.312 1.875C290.771 10.25 290.354 18.5625 290.062 26.8125C289.771 35.0208 289.625 43.2708 289.625 51.5625C289.625 58.0208 289.708 64.3958 289.875 70.6875C290.083 76.9792 290.417 83.3125 290.875 89.6875L278.25 89.3125C276.583 83.8958 274.938 78.5208 273.312 73.1875C271.729 67.8125 270.146 62.4792 268.562 57.1875C266.979 51.8958 265.354 46.625 263.688 41.375C262.062 36.125 260.375 30.8958 258.625 25.6875C258.75 36.5625 258.938 47.4167 259.188 58.25C259.479 69.0417 259.979 79.8125 260.688 90.5625L246.25 90.4375C246.75 77.1458 247 63.7917 247 50.375C247 42.125 246.917 33.9583 246.75 25.875C246.583 17.7917 246.333 9.66667 246 1.5L263.5 1.875C265.625 11.0417 267.896 20.3542 270.312 29.8125C272.729 39.2708 275.292 48.6042 278 57.8125C277.708 48.3958 277.271 38.9792 276.688 29.5625C276.146 20.1042 275.542 10.8333 274.875 1.75L291.312 1.875ZM324.688 92.5C324.479 89.625 324.271 86.7292 324.062 83.8125C323.896 80.8958 323.688 77.9583 323.438 75C321.604 74.875 319.833 74.75 318.125 74.625C316.417 74.5 314.688 74.4375 312.938 74.4375H312.125C311.917 77.4375 311.729 80.3958 311.562 83.3125C311.396 86.2292 311.25 89.125 311.125 92L295.5 91.75C298.083 76.875 300.417 62.0417 302.5 47.25C304.583 32.4583 306.354 17.5417 307.812 2.5L326.625 2.8125C328.208 17.6875 330.104 32.4792 332.312 47.1875C334.562 61.8542 337.188 76.625 340.188 91.5L324.688 92.5ZM317.375 18.25C316.542 25.9167 315.75 33.5625 315 41.1875C314.25 48.8125 313.562 56.5 312.938 64.25C313.812 64.3333 314.708 64.375 315.625 64.375C316.542 64.375 317.479 64.375 318.438 64.375H322.5C321.792 56.625 321 48.9375 320.125 41.3125C319.25 33.6875 318.333 26 317.375 18.25ZM381.5 29.9375C381.5 33.5208 381.021 37.0417 380.062 40.5C379.146 43.9167 377.708 47.0833 375.75 50C373.833 52.9167 371.396 55.5 368.438 57.75C365.479 59.9583 361.979 61.6458 357.938 62.8125C358.021 67.8542 358.125 72.8542 358.25 77.8125C358.417 82.7292 358.604 87.625 358.812 92.5H343.562C344.229 83.0417 344.708 73.5833 345 64.125C345.333 54.6667 345.5 45.1458 345.5 35.5625C345.5 30.0208 345.458 24.5 345.375 19C345.292 13.4583 345.125 7.875 344.875 2.25C347.083 1.58333 349.312 1.14583 351.562 0.9375C353.854 0.729167 355.792 0.625 357.375 0.625C358.5 0.625 359.875 0.75 361.5 1C363.167 1.25 364.875 1.75 366.625 2.5C368.417 3.20833 370.188 4.22917 371.938 5.5625C373.729 6.85417 375.333 8.60417 376.75 10.8125C378.167 12.9792 379.312 15.625 380.188 18.75C381.062 21.875 381.5 25.6042 381.5 29.9375ZM357.938 52.1875C359.312 51.6875 360.5 51.0208 361.5 50.1875C362.542 49.3542 363.438 48.4375 364.188 47.4375C364.979 46.3958 365.625 45.2917 366.125 44.125C366.667 42.9583 367.104 41.8125 367.438 40.6875C368.229 38.0625 368.688 35.2083 368.812 32.125C368.812 32.0833 368.792 31.6042 368.75 30.6875C368.75 29.7708 368.646 28.625 368.438 27.25C368.271 25.8333 367.979 24.2917 367.562 22.625C367.146 20.9167 366.562 19.2917 365.812 17.75C365.104 16.2083 364.167 14.8333 363 13.625C361.875 12.375 360.479 11.5 358.812 11C358.479 17.4583 358.25 23.9375 358.125 30.4375C358 36.8958 357.938 43.4167 357.938 50V52.1875ZM410.812 92.5C410.604 89.625 410.396 86.7292 410.188 83.8125C410.021 80.8958 409.812 77.9583 409.562 75C407.729 74.875 405.958 74.75 404.25 74.625C402.542 74.5 400.812 74.4375 399.062 74.4375H398.25C398.042 77.4375 397.854 80.3958 397.688 83.3125C397.521 86.2292 397.375 89.125 397.25 92L381.625 91.75C384.208 76.875 386.542 62.0417 388.625 47.25C390.708 32.4583 392.479 17.5417 393.938 2.5L412.75 2.8125C414.333 17.6875 416.229 32.4792 418.438 47.1875C420.688 61.8542 423.312 76.625 426.312 91.5L410.812 92.5ZM403.5 18.25C402.667 25.9167 401.875 33.5625 401.125 41.1875C400.375 48.8125 399.688 56.5 399.062 64.25C399.938 64.3333 400.833 64.375 401.75 64.375C402.667 64.375 403.604 64.375 404.562 64.375H408.625C407.917 56.625 407.125 48.9375 406.25 41.3125C405.375 33.6875 404.458 26 403.5 18.25ZM463.125 92.125C460.792 92.0417 458.521 91.9792 456.312 91.9375C454.146 91.8958 451.979 91.875 449.812 91.875C446.562 91.875 443.354 91.9167 440.188 92C437.021 92.125 433.75 92.2917 430.375 92.5C430.75 84.75 431.042 77.0833 431.25 69.5C431.5 61.875 431.625 54.1875 431.625 46.4375C431.625 39.0208 431.521 31.6667 431.312 24.375C431.146 17.0417 430.833 9.66667 430.375 2.25C430.792 2.29167 431.271 2.3125 431.812 2.3125C432.271 2.35417 432.833 2.375 433.5 2.375C434.167 2.375 434.917 2.375 435.75 2.375C437.083 2.375 438.521 2.35417 440.062 2.3125C441.646 2.22917 443.229 2.125 444.812 2C444.271 8 443.875 14.3125 443.625 20.9375C443.417 27.5625 443.271 34.2708 443.188 41.0625C443.146 47.8125 443.104 54.5625 443.062 61.3125C443.062 68.0208 443 74.5 442.875 80.75C446.292 80.6667 449.604 80.5 452.812 80.25C456.062 80 459.5 79.6042 463.125 79.0625V92.125ZM512.375 92.125C512.5 85.75 512.646 79.2708 512.812 72.6875C512.854 69.8958 512.896 66.9375 512.938 63.8125C513.021 60.6875 513.083 57.5208 513.125 54.3125C513.167 51.1042 513.188 47.8958 513.188 44.6875C513.229 41.4792 513.25 38.3958 513.25 35.4375C513.25 33.4792 513.25 31.625 513.25 29.875C513.25 28.0833 513.208 26.3958 513.125 24.8125C512.625 27.8958 511.979 31.875 511.188 36.75C510.438 41.5833 509.646 46.9375 508.812 52.8125C507.979 58.6458 507.146 64.8333 506.312 71.375C505.521 77.9167 504.812 84.4167 504.188 90.875L492.312 90.5625C491.312 84.0625 490.333 77.6667 489.375 71.375C488.458 65.0833 487.562 59.1042 486.688 53.4375C485.854 47.7708 485.083 42.5208 484.375 37.6875C483.667 32.8542 483.062 28.6458 482.562 25.0625V46.8125C482.562 51.3125 482.583 55.8542 482.625 60.4375C482.667 64.9792 482.708 69.2708 482.75 73.3125C482.833 77.3542 482.938 81 483.062 84.25C483.188 87.4583 483.354 89.9583 483.562 91.75L466.562 92.75C467.188 89.2083 467.688 85.2292 468.062 80.8125C468.479 76.3958 468.792 71.7708 469 66.9375C469.25 62.1042 469.417 57.1875 469.5 52.1875C469.583 47.1875 469.625 42.3333 469.625 37.625C469.625 32.7917 469.583 28.2708 469.5 24.0625C469.458 19.8542 469.396 16.1667 469.312 13C469.188 9.29167 469.083 5.89583 469 2.8125C470.333 3.02083 471.729 3.20833 473.188 3.375C474.646 3.5 476.083 3.60417 477.5 3.6875C478.917 3.77083 480.292 3.83333 481.625 3.875C482.958 3.91667 484.167 3.9375 485.25 3.9375C485.958 3.9375 486.604 3.9375 487.188 3.9375C487.812 3.9375 488.354 3.91667 488.812 3.875C489.312 3.875 489.75 3.85417 490.125 3.8125C492.125 17.6458 493.812 29.3125 495.188 38.8125C496.562 48.3125 497.646 55.5417 498.438 60.5C498.896 57.3333 499.333 54.0833 499.75 50.75C500.208 47.375 500.625 44.0417 501 40.75C501.375 37.4583 501.708 34.25 502 31.125C502.333 27.9583 502.625 24.9792 502.875 22.1875C503.458 15.6042 503.979 9.22917 504.438 3.0625C505.354 3.14583 506.354 3.22917 507.438 3.3125C508.396 3.39583 509.521 3.45833 510.812 3.5C512.146 3.54167 513.604 3.5625 515.188 3.5625C516.771 3.5625 518.479 3.54167 520.312 3.5C522.146 3.41667 524.062 3.27083 526.062 3.0625C525.562 18.6458 525.312 32.125 525.312 43.5C525.312 51.875 525.396 59.0833 525.562 65.125C525.771 71.1667 525.979 76.1667 526.188 80.125C526.438 84.7917 526.75 88.6667 527.125 91.75L512.375 92.125Z" fill="#A75329"/>
</svg>
