<svg width="427" height="352" viewBox="0 0 427 352" fill="none" xmlns="http://www.w3.org/2000/svg">
<path d="M425.662 7.59412C424.136 3.09657 422.313 1.913 419.467 0.788618C413.243 -1.51933 402.7 1.97218 402.7 1.97218C402.7 1.97218 29.446 136.188 8.12225 151.042C3.53091 154.238 1.99263 156.132 1.22938 158.321C-2.45671 168.855 9.02752 173.53 9.02752 173.53L105.233 204.894C105.233 204.894 108.818 205.427 110.096 204.599C131.982 190.751 330.291 65.5296 341.728 61.3279C343.533 60.7953 344.87 61.3872 344.515 62.6299C339.935 78.7264 167.695 231.821 167.695 231.821C167.695 231.821 167.038 232.649 166.624 233.596L166.399 233.477L157.424 328.932C157.424 328.932 153.661 358.166 182.895 328.932C203.521 308.279 223.477 290.999 233.465 282.655C266.545 305.497 302.146 330.767 317.511 343.963C325.226 350.591 331.682 351.656 336.995 351.479C351.579 350.946 355.65 334.909 355.65 334.909C355.65 334.909 423.668 61.0913 425.94 24.4008C426.165 20.7909 426.473 18.542 426.496 16.0566C426.538 12.6242 426.218 9.19193 425.662 7.59412Z" fill="#793C1D"/>
</svg>
