<svg width="351" height="360" viewBox="0 0 351 360" fill="none" xmlns="http://www.w3.org/2000/svg">
<path d="M259.508 335.769L166.277 200.312L153 181.03L44.8161 23.8477H91.3521L178.842 150.965L192.118 170.247L306.044 335.769H259.508ZM325.282 322.538L207.857 151.941L194.581 132.647L110.582 10.6133L103.62 0.500083H0.402832L25.5757 37.0792L137.262 199.356L150.538 218.63L240.276 349.015L247.239 359.117H350.456L325.282 322.538Z" fill="#793C1D"/>
<path d="M153.001 181.03L166.278 200.312L150.539 218.63L29.7787 359.117H0L137.262 199.356L153.001 181.03Z" fill="#793C1D"/>
<path d="M338.031 0.500258L207.857 151.941L192.118 170.247L178.842 150.965L194.582 132.647L282.759 30.0138L308.252 0.500258H338.031Z" fill="#793C1D"/>
</svg>
